<?xml version="1.0" encoding="iso-8859-1"?>
<!-- Generator: Adobe Illustrator 17.1.0, SVG Export Plug-In . SVG Version: 6.00 Build 0)  -->
<!DOCTYPE svg PUBLIC "-//W3C//DTD SVG 1.1//EN" "http://www.w3.org/Graphics/SVG/1.1/DTD/svg11.dtd">
<svg version="1.1" id="Capa_1" xmlns="http://www.w3.org/2000/svg" xmlns:xlink="http://www.w3.org/1999/xlink" x="0px" y="0px"
	 viewBox="0 0 193.142 193.142" style="enable-background:new 0 0 193.142 193.142;" xml:space="preserve">
<path d="M185.142,24.931v15.421c-2.92-1.988-6.443-3.153-10.234-3.153h-34.887V24.931h-8v12.268H66.617v-2.371
	c0-9.374-7.626-17-17-17H28.266c-9.374,0-17,7.626-17,17v3.761C10.113,39.067,9.019,39.657,8,40.351V9.045H0v46.388v6.258v4.673
	v7.885v70.391v6.258v4.673v7.885v20.643h8v-16.643h124.021v16.643h8v-16.643h45.121v16.643h8v-20.643v-7.885v-4.673v-6.258V74.248
	v-7.885V61.69v-6.258V24.931H185.142z M174.907,45.198c5.643,0,10.234,4.591,10.234,10.234v2.258h-45.121V45.198H174.907z
	 M132.021,78.248v48.157H66.617v-2.372c0-9.374-7.626-17-17-17H28.266c-9.374,0-17,7.626-17,17v3.762
	c-1.152,0.478-2.246,1.068-3.266,1.762v-51.31H132.021z M18.234,134.405h48.383h65.403v12.491H8v-2.258
	C8,138.996,12.591,134.405,18.234,134.405z M140.021,134.405h34.887c2.581,0,4.936,0.968,6.738,2.551h-41.625V134.405z
	 M140.021,146.896v-1.94h45.121v1.94H140.021z M174.907,126.405h-34.887v-8.129h45.121v11.282
	C182.221,127.57,178.698,126.405,174.907,126.405z M185.142,110.276h-45.121V91.598h45.121V110.276z M185.142,83.598h-45.121v-5.35
	h45.121V83.598z M18.234,45.198h48.383h65.403V57.69H8v-2.258C8,49.789,12.591,45.198,18.234,45.198z"/>
<g>
</g>
<g>
</g>
<g>
</g>
<g>
</g>
<g>
</g>
<g>
</g>
<g>
</g>
<g>
</g>
<g>
</g>
<g>
</g>
<g>
</g>
<g>
</g>
<g>
</g>
<g>
</g>
<g>
</g>
</svg>
