<?xml version="1.0" encoding="iso-8859-1"?>
<!-- Generator: Adobe Illustrator 19.0.0, SVG Export Plug-In . SVG Version: 6.00 Build 0)  -->
<svg version="1.1" id="Layer_1" xmlns="http://www.w3.org/2000/svg" xmlns:xlink="http://www.w3.org/1999/xlink" x="0px" y="0px"
	 viewBox="0 0 512 512" style="enable-background:new 0 0 512 512;" xml:space="preserve">
<g>
	<g>
		<path d="M495.304,189.217c-9.217,0-16.696,7.473-16.696,16.696v83.478h-50.087v-66.783c0-18.413-14.978-33.391-33.391-33.391
			H250.435c-18.413,0-33.391,14.978-33.391,33.391v66.783h-83.478H33.391V105.739c0-9.223-7.479-16.696-16.696-16.696
			S0,96.516,0,105.739v200.348v33.391v66.783c0,9.223,7.479,16.696,16.696,16.696s16.696-7.473,16.696-16.696v-50.087h445.217
			v50.087c0,9.223,7.479,16.696,16.696,16.696c9.217,0,16.696-7.473,16.696-16.696c0-62.45,0-138.202,0-200.348
			C512,196.69,504.521,189.217,495.304,189.217z"/>
	</g>
</g>
<g>
	<g>
		<path d="M133.565,189.217c-27.619,0-50.087,22.468-50.087,50.087c0,27.619,22.468,50.087,50.087,50.087
			c27.619,0,50.087-22.468,50.087-50.087C183.652,211.685,161.184,189.217,133.565,189.217z"/>
	</g>
</g>
<g>
</g>
<g>
</g>
<g>
</g>
<g>
</g>
<g>
</g>
<g>
</g>
<g>
</g>
<g>
</g>
<g>
</g>
<g>
</g>
<g>
</g>
<g>
</g>
<g>
</g>
<g>
</g>
<g>
</g>
</svg>
